<?xml version="1.0" encoding="UTF-8" standalone="no" ?>
<!DOCTYPE svg PUBLIC "-//W3C//DTD SVG 1.1//EN" "http://www.w3.org/Graphics/SVG/1.1/DTD/svg11.dtd">
<svg xmlns="http://www.w3.org/2000/svg" xmlns:xlink="http://www.w3.org/1999/xlink" version="1.1" width="500" height="500" viewBox="0 0 500 500" xml:space="preserve">
<desc>Created with Fabric.js 3.6.3</desc>
<defs>
</defs>
<rect x="0" y="0" width="100%" height="100%" fill="#000000"></rect>
<g transform="matrix(1.8790084390549755 0 0 1.8790084390549755 287.29999999999995 204.5007569718013)"  >
<path style="stroke: none; stroke-width: 1; stroke-dasharray: none; stroke-linecap: butt; stroke-dashoffset: 0; stroke-linejoin: miter; stroke-miterlimit: 4; fill: rgb(255,255,255); fill-rule: nonzero; opacity: 1;"  transform=" translate(-49.999, -49.99999999999999)" d="M 93.146 53.175 c 2.949 -1.872 3.821 -6.621 4.664 -8.872 l 0.024 -0.169 l -0.17 0.017 c -4.612 0.469 -7.021 2.95 -8.284 4.802 c 0.308 -1.953 0.468 -3.929 0.468 -5.919 c 0 -0.024 -0.001 -0.047 -0.001 -0.071 l 0.02 0.027 c 0 0 2.312 -0.332 4.461 -2.856 c 2.264 -2.66 1.694 -7.454 1.835 -9.854 l -0.027 -0.169 l -0.157 0.067 c -4.351 1.846 -5.896 5.012 -6.531 7.159 c -0.242 -1.709 -0.596 -3.394 -1.051 -5.045 c 0.445 -0.238 2.202 -1.305 3.388 -3.925 c 1.438 -3.183 -0.437 -7.632 -0.966 -9.977 l -0.072 -0.155 l -0.133 0.107 c -3.421 2.776 -4.181 5.979 -4.282 8.215 c -0.536 -1.193 -1.13 -2.36 -1.782 -3.499 l 0.024 0.011 c 0 0 1.777 -1.425 2.328 -4.61 c 0.581 -3.356 -2.275 -7.098 -3.348 -9.182 l -0.106 -0.128 l -0.099 0.134 c -2.648 3.588 -2.477 6.911 -1.983 9.04 c -0.399 -0.513 -0.813 -1.018 -1.24 -1.514 c -0.071 -1.121 -0.642 -2.509 -1.95 -3.98 c -1.437 -1.618 -4.195 -3.92 -9.004 -3.632 l -0.166 0.01 l 0.051 0.159 c 1.163 2.035 2.745 6.469 5.876 7.809 c 1.76 0.753 3.229 0.81 4.141 0.731 c 0.478 0.559 0.938 1.13 1.381 1.712 c -0.042 -0.017 -0.081 -0.033 -0.122 -0.049 c -2.021 -0.772 -5.531 -1.543 -9.664 0.929 l -0.144 0.085 l 0.117 0.118 c 1.971 1.269 5.419 4.474 8.815 4.22 c 1.728 -0.129 2.98 -0.656 3.776 -1.119 c 0.786 1.371 1.484 2.787 2.095 4.239 c -0.113 -0.087 -0.231 -0.175 -0.353 -0.261 c -1.809 -1.286 -5.096 -2.953 -9.835 -1.561 l -0.164 0.048 l 0.087 0.147 c 1.63 1.767 4.231 5.834 7.668 6.454 c 1.856 0.335 3.302 0.088 4.204 -0.188 c 0.455 1.647 0.804 3.329 1.038 5.036 c -0.009 -0.011 -0.016 -0.021 -0.024 -0.032 c -1.382 -1.736 -4.079 -4.248 -9.02 -4.222 l -0.17 0.001 l 0.042 0.166 c 1.077 2.149 2.451 6.778 5.582 8.325 c 1.611 0.797 3.008 0.981 3.953 0.984 c 0 0.032 0.001 0.064 0.001 0.096 c 0 2.039 -0.171 4.064 -0.508 6.063 c -0.019 -0.049 -0.035 -0.098 -0.055 -0.148 c -0.807 -2.068 -2.642 -5.264 -7.368 -6.698 l -0.163 -0.05 l -0.009 0.17 c 0.395 2.372 0.339 7.2 2.873 9.604 c 1.321 1.253 2.618 1.841 3.521 2.118 c -0.572 1.825 -1.288 3.616 -2.138 5.365 c -0.003 -0.17 -0.009 -0.344 -0.021 -0.523 c -0.136 -2.215 -0.903 -5.818 -4.965 -8.631 l -0.142 -0.097 l -0.06 0.16 c -0.35 2.379 -1.88 6.958 -0.203 10.021 c 0.998 1.822 2.232 2.814 3.016 3.301 c -1.044 1.63 -2.214 3.212 -3.504 4.734 c 0.032 -0.146 0.062 -0.294 0.089 -0.446 c 0.407 -2.275 0.518 -6.111 -2.901 -9.956 l -0.118 -0.133 l -0.101 0.146 c -0.938 2.32 -3.614 6.578 -2.67 10.091 c 0.546 2.031 1.509 3.32 2.18 4.021 c -0.188 0.178 -0.374 0.356 -0.564 0.532 c -1.361 1.253 -2.711 2.37 -4.043 3.374 c 0.043 -0.107 0.087 -0.214 0.127 -0.326 c 0.845 -2.292 1.667 -6.265 -1.181 -10.897 l -0.099 -0.161 l -0.133 0.135 c -1.405 2.242 -4.976 6.18 -4.642 10.01 c 0.173 1.992 0.81 3.421 1.351 4.31 c -1.962 1.158 -3.866 2.094 -5.695 2.87 c 0.175 -0.195 0.351 -0.402 0.524 -0.626 c 1.399 -1.802 3.255 -5.104 2.031 -10.033 l -0.042 -0.17 l -0.155 0.082 c -1.886 1.598 -6.177 4.091 -6.964 7.595 c -0.509 2.264 -0.136 3.958 0.154 4.812 c -2.058 0.672 -3.977 1.184 -5.719 1.649 c -0.014 0.003 -0.028 0.007 -0.042 0.01 c -0.014 -0.003 -0.028 -0.007 -0.042 -0.01 c -1.743 -0.466 -3.662 -0.978 -5.719 -1.649 c 0.29 -0.854 0.662 -2.549 0.154 -4.812 c -0.787 -3.504 -5.079 -5.997 -6.964 -7.595 l -0.156 -0.082 l -0.042 0.17 c -1.224 4.929 0.631 8.231 2.032 10.033 c 0.173 0.224 0.349 0.431 0.524 0.626 c -1.83 -0.776 -3.734 -1.712 -5.696 -2.87 c 0.541 -0.889 1.177 -2.317 1.35 -4.31 c 0.334 -3.83 -3.236 -7.768 -4.642 -10.01 l -0.131 -0.135 l -0.098 0.161 c -2.848 4.633 -2.026 8.605 -1.183 10.897 c 0.042 0.112 0.085 0.219 0.128 0.325 c -1.332 -1.003 -2.681 -2.12 -4.042 -3.373 c -0.191 -0.176 -0.378 -0.354 -0.566 -0.532 c 0.671 -0.7 1.635 -1.989 2.18 -4.021 c 0.944 -3.513 -1.731 -7.771 -2.67 -10.091 l -0.101 -0.146 L 24.2 58.021 c -3.419 3.845 -3.31 7.681 -2.902 9.956 c 0.027 0.152 0.058 0.301 0.089 0.446 c -1.29 -1.522 -2.459 -3.104 -3.503 -4.734 c 0.783 -0.486 2.017 -1.479 3.015 -3.301 c 1.678 -3.063 0.148 -7.643 -0.203 -10.021 l -0.06 -0.16 l -0.14 0.097 c -4.062 2.812 -4.83 6.416 -4.966 8.631 c -0.011 0.18 -0.017 0.354 -0.02 0.523 c -0.85 -1.749 -1.566 -3.54 -2.139 -5.365 c 0.903 -0.277 2.2 -0.865 3.521 -2.118 c 2.535 -2.404 2.479 -7.232 2.873 -9.604 l -0.008 -0.17 l -0.164 0.05 c -4.728 1.435 -6.561 4.63 -7.368 6.698 c -0.02 0.05 -0.036 0.099 -0.055 0.148 c -0.336 -2 -0.508 -4.025 -0.508 -6.064 c 0 -0.032 0.001 -0.064 0.001 -0.096 c 0.944 -0.003 2.341 -0.187 3.953 -0.984 c 3.131 -1.547 4.504 -6.176 5.583 -8.325 l 0.042 -0.166 l -0.171 -0.001 c -4.94 -0.026 -7.636 2.486 -9.019 4.222 c -0.008 0.011 -0.016 0.022 -0.024 0.033 c 0.234 -1.707 0.582 -3.389 1.037 -5.037 c 0.903 0.276 2.348 0.523 4.205 0.188 c 3.438 -0.62 6.039 -4.688 7.669 -6.454 l 0.086 -0.147 l -0.164 -0.048 c -4.74 -1.393 -8.026 0.274 -9.835 1.561 c -0.122 0.086 -0.239 0.174 -0.353 0.261 c 0.61 -1.452 1.309 -2.868 2.095 -4.239 c 0.796 0.462 2.049 0.99 3.776 1.119 c 3.396 0.254 6.845 -2.951 8.815 -4.22 l 0.118 -0.118 l -0.143 -0.085 c -4.134 -2.473 -7.644 -1.702 -9.664 -0.929 c -0.042 0.016 -0.081 0.033 -0.123 0.049 c 0.443 -0.582 0.902 -1.153 1.38 -1.712 c 0.912 0.079 2.382 0.022 4.141 -0.731 c 3.131 -1.34 4.713 -5.774 5.876 -7.809 l 0.051 -0.159 l -0.167 -0.01 c -4.808 -0.288 -7.567 2.014 -9.004 3.632 c -1.308 1.471 -1.877 2.859 -1.949 3.98 c -0.427 0.496 -0.841 1.001 -1.241 1.514 c 0.495 -2.129 0.666 -5.452 -1.982 -9.04 l -0.099 -0.134 l -0.106 0.128 c -1.073 2.084 -3.929 5.826 -3.348 9.182 c 0.552 3.185 2.328 4.61 2.328 4.61 l 0.025 -0.011 c -0.653 1.138 -1.247 2.306 -1.782 3.499 c -0.101 -2.235 -0.861 -5.439 -4.282 -8.215 l -0.132 -0.107 L 9.182 18.39 c -0.53 2.345 -2.404 6.794 -0.965 9.977 c 1.186 2.62 2.942 3.688 3.388 3.925 c -0.456 1.651 -0.809 3.336 -1.051 5.045 c -0.636 -2.146 -2.182 -5.313 -6.533 -7.159 l -0.157 -0.067 L 3.837 30.28 c 0.14 2.4 -0.43 7.194 1.834 9.854 c 2.149 2.525 4.46 2.856 4.46 2.856 l 0.021 -0.027 c 0 0.024 -0.001 0.047 -0.001 0.071 c 0 1.99 0.16 3.965 0.467 5.918 c -1.262 -1.852 -3.672 -4.332 -8.284 -4.801 l -0.17 -0.017 l 0.024 0.169 c 0.843 2.251 1.715 7 4.664 8.872 c 2.686 1.705 4.912 1.438 5.088 1.413 c 0.495 1.571 1.092 3.118 1.785 4.636 c -1.802 -1.326 -4.772 -2.747 -9.082 -1.83 l -0.167 0.035 l 0.075 0.154 c 1.491 1.885 3.774 6.139 7.154 7.019 c 2.412 0.628 4.188 0.188 4.921 -0.068 c 0.935 1.458 1.964 2.878 3.089 4.253 c -2.141 -0.933 -5.566 -1.733 -9.813 0.307 l -0.161 0.078 l 0.114 0.137 c 1.973 1.541 5.33 5.284 8.967 5.344 c 2.779 0.045 4.516 -0.969 5.089 -1.365 c 0.179 0.168 0.355 0.337 0.537 0.505 c 1.251 1.151 2.491 2.191 3.718 3.137 c -2.385 -0.622 -6.229 -0.959 -10.432 2.064 l -0.152 0.109 l 0.144 0.121 c 2.337 1.239 6.522 4.516 10.318 3.907 c 3.604 -0.581 5.237 -2.564 5.237 -2.564 l -0.046 -0.112 c -0.014 -0.035 -0.031 -0.068 -0.046 -0.104 c 1.618 0.964 3.197 1.777 4.729 2.477 c -2.281 0.229 -5.458 1.187 -8.103 4.743 l -0.104 0.142 l 0.162 0.067 c 2.432 0.441 7.083 2.173 10.29 0.556 c 2.121 -1.07 3.194 -2.475 3.652 -3.229 c 1.15 0.374 2.259 0.7 3.317 0.996 c -3.044 0.89 -5.489 1.872 -7.147 3.748 l 1.132 1.001 c 1.79 -2.025 4.92 -2.915 8.881 -3.974 c 3.961 1.059 7.091 1.948 8.881 3.974 l 1.133 -1.001 c -1.658 -1.876 -4.104 -2.858 -7.147 -3.748 c 1.059 -0.296 2.168 -0.622 3.318 -0.996 c 0.456 0.754 1.531 2.158 3.651 3.229 c 3.206 1.617 7.858 -0.114 10.289 -0.556 l 0.162 -0.067 l -0.104 -0.142 c -2.646 -3.557 -5.822 -4.515 -8.104 -4.743 c 1.531 -0.699 3.111 -1.513 4.728 -2.476 c -0.015 0.034 -0.032 0.067 -0.046 0.103 l -0.045 0.112 c 0 0 1.633 1.983 5.236 2.564 c 3.796 0.608 7.981 -2.668 10.318 -3.907 l 0.145 -0.121 l -0.153 -0.109 c -4.201 -3.023 -8.046 -2.687 -10.431 -2.064 c 1.226 -0.945 2.467 -1.985 3.718 -3.137 c 0.181 -0.168 0.357 -0.337 0.536 -0.505 c 0.573 0.396 2.311 1.41 5.089 1.365 c 3.637 -0.06 6.994 -3.803 8.967 -5.344 l 0.114 -0.137 l -0.16 -0.078 c -4.248 -2.041 -7.673 -1.239 -9.814 -0.307 c 1.126 -1.375 2.155 -2.795 3.09 -4.253 c 0.734 0.257 2.509 0.696 4.921 0.068 c 3.381 -0.88 5.663 -5.134 7.155 -7.019 l 0.074 -0.154 l -0.167 -0.035 c -4.31 -0.917 -7.279 0.504 -9.081 1.83 c 0.692 -1.518 1.289 -3.064 1.784 -4.636 C 88.235 54.612 90.462 54.879 93.146 53.175 z M 23.856 61.577 c -0.297 4.328 -0.406 7.138 -0.648 8.873 c -0.033 -0.034 -0.067 -0.069 -0.099 -0.104 C 23.042 68.83 22.953 64.545 23.856 61.577 z M 19.368 53.545 c -1.281 4.041 -2.024 6.661 -2.649 8.216 c -0.019 -0.033 -0.039 -0.066 -0.057 -0.099 C 16.918 60.335 17.812 56.176 19.368 53.545 z M 17.529 44.991 c -2.291 3.223 -3.758 5.411 -4.814 6.737 c -0.016 -0.065 -0.032 -0.131 -0.047 -0.195 C 13.486 50.084 15.44 46.846 17.529 44.991 z M 18.289 35.47 c -3.104 2.374 -5.139 4.019 -6.539 4.979 c 0.005 -0.071 0.008 -0.143 0.013 -0.213 C 13 39.071 15.781 36.608 18.289 35.47 z M 21.631 27.377 c -3.798 1.483 -6.259 2.527 -7.868 3.042 c 0.018 -0.052 0.037 -0.102 0.054 -0.153 C 15.194 29.547 18.762 27.798 21.631 27.377 z M 26.003 20.802 c -3.785 0.453 -6.311 0.825 -7.961 0.936 c 0.038 -0.057 0.075 -0.114 0.113 -0.171 C 19.766 21.204 23.33 20.513 26.003 20.802 z M 28.013 11.004 c -3.152 2.148 -5.222 3.644 -6.636 4.503 l -0.104 -0.098 C 22.463 14.396 25.419 12.014 28.013 11.004 z M 16.67 12.628 c 0.653 3.148 0.034 7.696 -0.1 8.597 c -0.01 0.016 -0.021 0.032 -0.032 0.049 C 16.423 19.666 16.573 16.963 16.67 12.628 z M 10.265 21.659 c 1.334 2.71 1.912 6.86 2.075 8.252 c -0.019 0.053 -0.035 0.106 -0.053 0.16 C 11.78 28.475 11.238 25.801 10.265 21.659 z M 5.782 33.122 c 2.3 2.527 4.178 7.093 4.431 7.723 c -0.001 0.009 -0.001 0.02 -0.002 0.029 C 9.268 39.524 7.984 37.046 5.782 33.122 z M 4.888 46.442 c 2.808 1.656 5.797 5.196 6.438 5.976 c 0.006 0.023 0.012 0.047 0.018 0.07 C 10.043 51.462 8.097 49.49 4.888 46.442 z M 7.776 58.794 c 2.749 0.62 6.058 2.54 7.453 3.401 c 0.04 0.071 0.078 0.142 0.117 0.213 C 13.781 61.769 11.417 60.547 7.776 58.794 z M 13.418 69.741 c 3.105 -0.052 7.207 1.215 8.642 1.695 c 0.042 0.044 0.085 0.087 0.127 0.13 C 20.456 71.329 17.709 70.656 13.418 69.741 z M 21.513 79.018 c 3.97 -0.774 9.885 0.26 9.885 0.26 C 29.598 79.402 26.518 79.19 21.513 79.018 z M 38.562 74.599 c 1.829 4.152 3.06 6.718 3.603 8.334 c -0.017 -0.007 -0.034 -0.013 -0.052 -0.02 C 41.593 82.042 39.19 77.902 38.562 74.599 z M 30.87 68.593 c 0.467 4.354 0.858 7.236 0.953 9.099 c -0.058 -0.039 -0.116 -0.076 -0.174 -0.115 C 31.269 75.811 30.499 71.672 30.87 68.593 z M 33.185 86.523 c 2.435 -1.331 6.076 -2.091 7.84 -2.4 c 0.092 0.036 0.187 0.072 0.279 0.106 C 39.65 84.786 37.044 85.441 33.185 86.523 z M 78.487 79.018 c -5.006 0.173 -8.086 0.385 -9.886 0.26 C 68.602 79.277 74.517 78.243 78.487 79.018 z M 69.13 68.593 c 0.371 3.079 -0.398 7.218 -0.778 8.983 c -0.059 0.039 -0.117 0.076 -0.174 0.115 C 68.272 75.829 68.663 72.946 69.13 68.593 z M 61.438 74.599 c -0.628 3.304 -3.03 7.443 -3.551 8.314 c -0.018 0.007 -0.035 0.013 -0.052 0.02 C 58.378 81.316 59.608 78.751 61.438 74.599 z M 66.814 86.523 c -3.858 -1.082 -6.465 -1.737 -8.118 -2.294 c 0.092 -0.034 0.187 -0.07 0.278 -0.106 C 60.738 84.433 64.38 85.192 66.814 86.523 z M 95.112 46.442 c -3.209 3.048 -5.155 5.02 -6.455 6.046 c 0.005 -0.023 0.011 -0.047 0.018 -0.07 C 89.314 51.64 92.304 48.098 95.112 46.442 z M 94.218 33.122 c -2.202 3.925 -3.485 6.403 -4.429 7.752 c 0 -0.01 -0.001 -0.02 -0.001 -0.029 C 90.04 40.215 91.919 35.649 94.218 33.122 z M 89.736 21.659 c -0.975 4.142 -1.517 6.816 -2.022 8.412 c -0.019 -0.053 -0.035 -0.107 -0.054 -0.16 C 87.823 28.517 88.4 24.369 89.736 21.659 z M 83.33 12.628 c 0.098 4.335 0.247 7.038 0.132 8.646 c -0.011 -0.017 -0.021 -0.033 -0.032 -0.049 C 83.295 20.322 82.678 15.776 83.33 12.628 z M 71.986 11.004 c 2.594 1.01 5.55 3.393 6.74 4.405 l -0.104 0.099 C 77.209 14.647 75.139 13.152 71.986 11.004 z M 73.997 20.802 c 2.674 -0.289 6.236 0.402 7.849 0.765 c 0.038 0.057 0.074 0.115 0.112 0.171 C 80.308 21.627 77.782 21.255 73.997 20.802 z M 78.368 27.377 c 2.87 0.421 6.437 2.169 7.813 2.889 c 0.019 0.051 0.037 0.101 0.055 0.153 C 84.628 29.904 82.167 28.861 78.368 27.377 z M 81.712 35.47 c 2.507 1.138 5.288 3.601 6.524 4.765 c 0.006 0.071 0.009 0.143 0.013 0.214 C 86.851 39.489 84.815 37.843 81.712 35.47 z M 82.472 44.991 c 2.088 1.854 4.042 5.093 4.859 6.541 c -0.016 0.065 -0.031 0.131 -0.046 0.196 C 86.229 50.402 84.762 48.214 82.472 44.991 z M 80.633 53.545 c 1.555 2.631 2.449 6.789 2.706 8.117 c -0.019 0.032 -0.038 0.064 -0.058 0.099 C 82.656 60.205 81.913 57.586 80.633 53.545 z M 76.891 70.348 c -0.032 0.034 -0.066 0.068 -0.1 0.103 c -0.24 -1.735 -0.351 -4.544 -0.647 -8.873 C 77.047 64.545 76.957 68.83 76.891 70.348 z M 86.582 69.741 c -4.292 0.915 -7.037 1.588 -8.769 1.825 c 0.042 -0.043 0.085 -0.087 0.127 -0.13 C 79.377 70.956 83.477 69.689 86.582 69.741 z M 92.224 58.794 c -3.641 1.753 -6.005 2.975 -7.569 3.614 c 0.039 -0.071 0.077 -0.142 0.117 -0.213 C 86.166 61.334 89.475 59.414 92.224 58.794 z" stroke-linecap="round" />
</g>
<g transform="matrix(1 0 0 1 279.04369110210666 316.850463834663)" style=""  ><path fill="#ffffff" opacity="1" d="M-144.29-15.35L-144.29-15.35Q-147.84-15.35-150.46-14.08Q-153.07-12.81-154.80-10.77Q-156.53-8.73-157.37-6.19Q-158.21-3.64-158.21-1.15L-158.21-1.15Q-158.21 1.69-157.10 4.40Q-156.00 7.11-154.06 9.20Q-152.11 11.29-149.52 12.56Q-146.93 13.83-143.90 13.83L-143.90 13.83Q-143.04 13.83-141.86 13.64Q-140.69 13.45-139.54 12.89Q-138.38 12.34-137.40 11.33Q-136.42 10.33-135.89 8.69L-135.89 8.69L-135.41 8.69L-135.41 14.02Q-136.13 14.02-136.92 14.21Q-137.71 14.41-138.67 14.65L-138.67 14.65Q-139.92 14.98-141.43 15.27Q-142.94 15.56-144.62 15.56L-144.62 15.56Q-148.80 15.56-151.97 14.12Q-155.14 12.68-157.25 10.37Q-159.36 8.07-160.42 5.17Q-161.47 2.26-161.47-0.71L-161.47-0.71Q-161.47-3.69-160.42-6.62Q-159.36-9.55-157.20-11.87Q-155.04-14.20-151.78-15.64Q-148.51-17.08-144.10-17.08L-144.10-17.08Q-142.51-17.08-141.24-16.79Q-139.97-16.51-138.96-16.22L-138.96-16.22Q-138.24-15.98-137.64-15.86Q-137.04-15.74-136.46-15.74L-136.46-15.74L-136.46-10.41L-136.94-10.41Q-137.23-11.90-138.00-12.88Q-138.77-13.87-139.80-14.39Q-140.83-14.92-142.01-15.14Q-143.18-15.35-144.29-15.35Z"/><path fill="#ffffff" opacity="1" d="M-115.97-17.08L-115.97-17.08Q-112.22-17.08-109.25-15.76Q-106.27-14.44-104.18-12.21Q-102.10-9.98-100.97-7.03Q-99.84-4.07-99.84-0.86L-99.84-0.86Q-99.84 2.74-101.16 5.77Q-102.48 8.79-104.78 10.95Q-107.09 13.11-110.14 14.33Q-113.18 15.56-116.64 15.56L-116.64 15.56Q-120.34 15.56-123.29 14.21Q-126.24 12.87-128.28 10.66Q-130.32 8.45-131.42 5.57Q-132.53 2.69-132.53-0.43L-132.53-0.43Q-132.53-3.50-131.42-6.50Q-130.32-9.50-128.18-11.85Q-126.05-14.20-122.98-15.64Q-119.90-17.08-115.97-17.08ZM-116.02 13.88L-116.02 13.88Q-112.80 13.73-110.38 12.41Q-107.95 11.09-106.32 9.05Q-104.69 7.01-103.90 4.57Q-103.10 2.12-103.10-0.28L-103.10-0.28Q-103.10-2.92-104.06-5.61Q-105.02-8.30-106.80-10.48Q-108.58-12.67-111.05-14.03Q-113.52-15.40-116.59-15.40L-116.59-15.40Q-119.57-15.40-121.92-14.08Q-124.27-12.76-125.93-10.70Q-127.58-8.63-128.45-6.09Q-129.31-3.55-129.31-1.10L-129.31-1.10Q-129.31 1.54-128.30 4.21Q-127.30 6.87-125.52 9.03Q-123.74 11.19-121.32 12.53Q-118.90 13.88-116.02 13.88Z"/><path fill="#ffffff" opacity="1" d="M-84.82 14.60L-84.82 14.60L-84.58 14.60L-84.58 15.08L-91.39 15.08L-91.39 14.60L-91.15 14.60Q-90.77 14.60-90.48 14.31Q-90.19 14.02-89.98 13.64Q-89.76 13.25-89.66 12.80Q-89.57 12.34-89.57 11.96L-89.57 11.96L-89.57-14.83L-95.14-14.83Q-95.90-14.83-96.48-14.49Q-97.06-14.15-97.44-13.65Q-97.82-13.15-98.02-12.55Q-98.21-11.95-98.21-11.37L-98.21-11.37L-98.69-11.37L-98.69-16.60L-77.14-16.60L-77.14-11.37L-77.62-11.37Q-77.62-11.95-77.81-12.55Q-78.00-13.15-78.38-13.65Q-78.77-14.15-79.34-14.49Q-79.92-14.83-80.69-14.83L-80.69-14.83L-86.35-14.83L-86.35 11.96Q-86.35 12.34-86.26 12.80Q-86.16 13.25-85.94 13.64Q-85.73 14.02-85.46 14.31Q-85.20 14.60-84.82 14.60Z"/><path fill="#ffffff" opacity="1" d="M-66.67 14.60L-66.67 14.60L-66.43 14.60L-66.43 15.08L-73.20 15.08L-73.20 14.60L-72.96 14.60Q-72.62 14.60-72.34 14.31Q-72.05 14.02-71.83 13.64Q-71.62 13.25-71.52 12.80Q-71.42 12.34-71.42 11.96L-71.42 11.96L-71.42-13.63Q-71.42-13.96-71.52-14.39Q-71.62-14.83-71.83-15.21Q-72.05-15.59-72.34-15.86Q-72.62-16.12-72.96-16.12L-72.96-16.12L-73.20-16.12L-73.20-16.60L-64.85-16.60Q-60.05-16.60-57.43-14.73Q-54.82-12.86-54.82-9.21L-54.82-9.21Q-54.82-7.39-55.42-6.02Q-56.02-4.65-57.02-3.67Q-58.03-2.68-59.40-2.08Q-60.77-1.48-62.30-1.19L-62.30-1.19L-58.85 4.09Q-57.60 6.01-56.30 7.85Q-55.01 9.70-53.76 11.67L-53.76 11.67Q-53.42 12.15-53.02 12.68Q-52.61 13.21-52.15 13.64Q-51.70 14.07-51.19 14.33Q-50.69 14.60-50.16 14.60L-50.16 14.60L-50.16 15.08L-52.22 15.08Q-54.14 15.08-55.37 14.14Q-56.59 13.21-57.41 11.96L-57.41 11.96Q-59.57 8.79-61.70 5.53Q-63.84 2.26-65.95-0.91L-65.95-0.91Q-66.48-0.95-67.08-1.03Q-67.68-1.10-68.21-1.19L-68.21-1.19L-68.21 11.96Q-68.21 12.34-68.11 12.80Q-68.02 13.25-67.80 13.64Q-67.58 14.02-67.32 14.31Q-67.06 14.60-66.67 14.60ZM-67.49-14.97L-68.21-14.97L-68.21-2.78L-67.97-2.78Q-67.58-2.73-66.74-2.71Q-65.90-2.68-64.66-2.68L-64.66-2.68Q-63.65-2.68-62.52-2.99Q-61.39-3.31-60.41-4.05Q-59.42-4.79-58.78-5.99Q-58.13-7.19-58.13-9.02L-58.13-9.02Q-58.13-10.84-58.82-11.99Q-59.52-13.15-60.74-13.82Q-61.97-14.49-63.70-14.73Q-65.42-14.97-67.49-14.97L-67.49-14.97Z"/><path fill="#ffffff" opacity="1" d="M-45.79-16.12L-45.79-16.60L-38.93-16.60L-38.93-16.12L-39.17-16.12Q-39.50-16.12-39.79-15.86Q-40.08-15.59-40.27-15.23Q-40.46-14.87-40.58-14.42Q-40.70-13.96-40.70-13.63L-40.70-13.63L-40.70 11.96Q-40.70 12.34-40.61 12.80Q-40.51 13.25-40.30 13.64Q-40.08 14.02-39.82 14.31Q-39.55 14.60-39.17 14.60L-39.17 14.60L-38.93 14.60L-38.93 15.08L-45.79 15.08L-45.79 14.60L-45.55 14.60Q-45.17 14.60-44.88 14.33Q-44.59 14.07-44.38 13.66Q-44.16 13.25-44.06 12.80Q-43.97 12.34-43.97 11.96L-43.97 11.96L-43.97-13.63Q-43.97-13.96-44.06-14.39Q-44.16-14.83-44.38-15.21Q-44.59-15.59-44.88-15.86Q-45.17-16.12-45.55-16.12L-45.55-16.12L-45.79-16.12Z"/><path fill="#ffffff" opacity="1" d="M-27.98 14.60L-27.98 14.60L-27.74 14.60L-27.74 15.08L-33.07 15.08L-33.07 14.60L-32.83 14.60Q-32.50 14.60-32.18 14.31Q-31.87 14.02-31.68 13.64Q-31.49 13.25-31.37 12.80Q-31.25 12.34-31.25 11.96L-31.25 11.96L-31.25-13.63Q-31.25-13.96-31.32-14.39Q-31.39-14.83-31.58-15.21Q-31.78-15.59-32.11-15.86Q-32.45-16.12-32.93-16.12L-32.93-16.12L-33.17-16.12L-33.17-16.60L-28.32-16.60L-10.90 10.85L-10.90-13.63Q-10.90-13.96-11.02-14.39Q-11.14-14.83-11.35-15.21Q-11.57-15.59-11.86-15.86Q-12.14-16.12-12.53-16.12L-12.53-16.12L-12.77-16.12L-12.77-16.60L-7.39-16.60L-7.39-16.12L-7.63-16.12Q-8.02-16.12-8.30-15.86Q-8.59-15.59-8.81-15.21Q-9.02-14.83-9.12-14.39Q-9.22-13.96-9.22-13.63L-9.22-13.63L-9.22 15.08L-12.19 15.08L-29.57-12.47L-29.57 11.96Q-29.57 12.34-29.47 12.80Q-29.38 13.25-29.16 13.64Q-28.94 14.02-28.66 14.31Q-28.37 14.60-27.98 14.60Z"/><path fill="#ffffff" opacity="1" d="M16.75 15.08L16.75 14.60L16.99 14.60Q18.14 14.60 18.14 13.54L18.14 13.54Q18.14 13.16 18.00 12.73L18.00 12.73L13.68 1.06L5.28 1.06L1.10 12.53Q0.96 12.92 0.96 13.25L0.96 13.25Q0.96 13.88 1.30 14.24Q1.63 14.60 2.02 14.60L2.02 14.60L2.26 14.60L2.26 15.08L-3.07 15.08L-3.07 14.60L-2.83 14.60Q-2.21 14.60-1.61 13.85Q-1.01 13.11-0.62 12.10L-0.62 12.10L10.37-17.18L21.12 11.81Q21.46 12.77 22.06 13.69Q22.66 14.60 23.62 14.60L23.62 14.60L23.86 14.60L23.86 15.08L16.75 15.08ZM9.46-10.60L5.76-0.57L13.15-0.57L9.46-10.60Z"/><path fill="#ffffff" opacity="1" d=""/><path fill="#ffffff" opacity="1" d="M57.98-17.08L57.98-17.08Q61.73-17.08 64.70-15.76Q67.68-14.44 69.77-12.21Q71.86-9.98 72.98-7.03Q74.11-4.07 74.11-0.86L74.11-0.86Q74.11 2.74 72.79 5.77Q71.47 8.79 69.17 10.95Q66.86 13.11 63.82 14.33Q60.77 15.56 57.31 15.56L57.31 15.56Q53.62 15.56 50.66 14.21Q47.71 12.87 45.67 10.66Q43.63 8.45 42.53 5.57Q41.42 2.69 41.42-0.43L41.42-0.43Q41.42-3.50 42.53-6.50Q43.63-9.50 45.77-11.85Q47.90-14.20 50.98-15.64Q54.05-17.08 57.98-17.08ZM57.94 13.88L57.94 13.88Q61.15 13.73 63.58 12.41Q66.00 11.09 67.63 9.05Q69.26 7.01 70.06 4.57Q70.85 2.12 70.85-0.28L70.85-0.28Q70.85-2.92 69.89-5.61Q68.93-8.30 67.15-10.48Q65.38-12.67 62.90-14.03Q60.43-15.40 57.36-15.40L57.36-15.40Q54.38-15.40 52.03-14.08Q49.68-12.76 48.02-10.70Q46.37-8.63 45.50-6.09Q44.64-3.55 44.64-1.10L44.64-1.10Q44.64 1.54 45.65 4.21Q46.66 6.87 48.43 9.03Q50.21 11.19 52.63 12.53Q55.06 13.88 57.94 13.88Z"/><path fill="#ffffff" opacity="1" d="M79.63 15.08L79.63 14.60L79.87 14.60Q80.26 14.60 80.54 14.33Q80.83 14.07 81.05 13.69Q81.26 13.30 81.38 12.87Q81.50 12.44 81.50 12.05L81.50 12.05L81.50-13.63Q81.50-13.96 81.38-14.39Q81.26-14.83 81.05-15.21Q80.83-15.59 80.54-15.86Q80.26-16.12 79.87-16.12L79.87-16.12L79.63-16.12L79.63-16.60L86.54-16.60L86.54-16.12L86.30-16.12Q85.92-16.12 85.63-15.86Q85.34-15.59 85.15-15.21Q84.96-14.83 84.84-14.39Q84.72-13.96 84.72-13.63L84.72-13.63L84.72 13.30L95.23 13.30Q96.14 13.30 96.82 12.87Q97.49 12.44 97.94 11.79Q98.40 11.14 98.62 10.40Q98.83 9.65 98.83 9.03L98.83 9.03L99.31 9.03L99.31 15.08L79.63 15.08Z"/><path fill="#ffffff" opacity="1" d="M103.44-16.12L103.44-16.60L110.30-16.60L110.30-16.12L110.06-16.12Q109.73-16.12 109.44-15.86Q109.15-15.59 108.96-15.23Q108.77-14.87 108.65-14.42Q108.53-13.96 108.53-13.63L108.53-13.63L108.53 11.96Q108.53 12.34 108.62 12.80Q108.72 13.25 108.94 13.64Q109.15 14.02 109.42 14.31Q109.68 14.60 110.06 14.60L110.06 14.60L110.30 14.60L110.30 15.08L103.44 15.08L103.44 14.60L103.68 14.60Q104.06 14.60 104.35 14.33Q104.64 14.07 104.86 13.66Q105.07 13.25 105.17 12.80Q105.26 12.34 105.26 11.96L105.26 11.96L105.26-13.63Q105.26-13.96 105.17-14.39Q105.07-14.83 104.86-15.21Q104.64-15.59 104.35-15.86Q104.06-16.12 103.68-16.12L103.68-16.12L103.44-16.12Z"/><path fill="#ffffff" opacity="1" d="M120.14-14.92L120.14-14.92Q120.14-14.63 120.29-14.20L120.29-14.20L128.74 8.55L137.18-14.44Q137.23-14.54 137.28-14.73Q137.33-14.92 137.33-15.02L137.33-15.02Q137.33-15.59 136.87-15.86Q136.42-16.12 136.03-16.12L136.03-16.12L136.03-16.60L141.26-16.60L141.26-16.12Q140.54-16.12 139.94-15.74Q139.34-15.35 139.01-14.44L139.01-14.44L128.02 15.65L116.78-14.30Q116.50-15.02 115.94-15.55Q115.39-16.07 114.58-16.12L114.58-16.12L114.58-16.60L121.39-16.60L121.39-16.12Q120.96-16.12 120.55-15.81Q120.14-15.50 120.14-14.92Z"/><path fill="#ffffff" opacity="1" d="M155.52 15.08L155.52 14.60L155.76 14.60Q156.91 14.60 156.91 13.54L156.91 13.54Q156.91 13.16 156.77 12.73L156.77 12.73L152.45 1.06L144.05 1.06L139.87 12.53Q139.73 12.92 139.73 13.25L139.73 13.25Q139.73 13.88 140.06 14.24Q140.40 14.60 140.78 14.60L140.78 14.60L141.02 14.60L141.02 15.08L135.70 15.08L135.70 14.60L135.94 14.60Q136.56 14.60 137.16 13.85Q137.76 13.11 138.14 12.10L138.14 12.10L149.14-17.18L159.89 11.81Q160.22 12.77 160.82 13.69Q161.42 14.60 162.38 14.60L162.38 14.60L162.62 14.60L162.62 15.08L155.52 15.08ZM148.22-10.60L144.53-0.57L151.92-0.57L148.22-10.60Z"/></g><g transform="matrix(1 0 0 1 223.19999157348136 365.44962709827774)" style=""  ><path fill="#ffffff" opacity="1" d="M-59.95-4.80L-59.95-4.80Q-58.90-4.80-58.06-4.43Q-57.23-4.06-56.64-3.43Q-56.05-2.81-55.73-1.98Q-55.42-1.15-55.42-0.24L-55.42-0.24Q-55.42 0.77-55.79 1.62Q-56.16 2.47-56.81 3.08Q-57.46 3.69-58.31 4.03Q-59.17 4.38-60.14 4.38L-60.14 4.38Q-61.18 4.38-62.01 4.00Q-62.84 3.62-63.42 3.00Q-63.99 2.38-64.30 1.57Q-64.61 0.76-64.61-0.12L-64.61-0.12Q-64.61-0.98-64.30-1.83Q-63.99-2.67-63.39-3.33Q-62.79-3.99-61.92-4.40Q-61.06-4.80-59.95-4.80ZM-59.97 3.90L-59.97 3.90Q-59.06 3.86-58.38 3.49Q-57.70 3.12-57.24 2.55Q-56.78 1.97-56.56 1.28Q-56.34 0.60-56.34-0.08L-56.34-0.08Q-56.34-0.82-56.61-1.58Q-56.88-2.33-57.37-2.95Q-57.87-3.56-58.57-3.95Q-59.26-4.33-60.13-4.33L-60.13-4.33Q-60.97-4.33-61.63-3.96Q-62.29-3.59-62.75-3.01Q-63.22-2.43-63.46-1.71Q-63.71-1.00-63.71-0.31L-63.71-0.31Q-63.71 0.43-63.42 1.18Q-63.14 1.93-62.64 2.54Q-62.14 3.15-61.46 3.53Q-60.78 3.90-59.97 3.90Z"/><path fill="#ffffff" opacity="1" d="M-50.79 4.24L-50.79 4.11L-50.72 4.11Q-50.62 4.11-50.54 4.02Q-50.46 3.94-50.40 3.84Q-50.34 3.73-50.31 3.60Q-50.29 3.47-50.29 3.36L-50.29 3.36L-50.29-3.83Q-50.29-3.93-50.31-4.05Q-50.34-4.17-50.40-4.28Q-50.45-4.39-50.53-4.46Q-50.61-4.53-50.72-4.53L-50.72-4.53L-50.79-4.53L-50.79-4.67L-48.18-4.67Q-47.11-4.67-46.26-4.30Q-45.41-3.93-44.83-3.30Q-44.24-2.67-43.93-1.86Q-43.62-1.05-43.62-0.17L-43.62-0.17Q-43.62 0.65-43.92 1.44Q-44.21 2.23-44.81 2.85Q-45.40 3.47-46.29 3.86Q-47.18 4.24-48.36 4.24L-48.36 4.24L-50.79 4.24ZM-44.54 0.03L-44.54 0.03Q-44.54-0.84-44.85-1.60Q-45.16-2.37-45.72-2.95Q-46.28-3.52-47.04-3.86Q-47.80-4.20-48.69-4.20L-48.69-4.20L-49.38-4.20L-49.38 3.77L-48.67 3.77Q-47.94 3.77-47.20 3.55Q-46.47 3.32-45.87 2.86Q-45.28 2.39-44.91 1.69Q-44.54 0.99-44.54 0.03Z"/><path fill="#ffffff" opacity="1" d="M-34.79-4.80L-34.79-4.80Q-33.74-4.80-32.90-4.43Q-32.06-4.06-31.48-3.43Q-30.89-2.81-30.57-1.98Q-30.25-1.15-30.25-0.24L-30.25-0.24Q-30.25 0.77-30.62 1.62Q-31.00 2.47-31.64 3.08Q-32.29 3.69-33.15 4.03Q-34.01 4.38-34.98 4.38L-34.98 4.38Q-36.02 4.38-36.85 4.00Q-37.68 3.62-38.25 3.00Q-38.83 2.38-39.14 1.57Q-39.45 0.76-39.45-0.12L-39.45-0.12Q-39.45-0.98-39.14-1.83Q-38.83-2.67-38.23-3.33Q-37.62-3.99-36.76-4.40Q-35.90-4.80-34.79-4.80ZM-34.80 3.90L-34.80 3.90Q-33.90 3.86-33.22 3.49Q-32.53 3.12-32.08 2.55Q-31.62 1.97-31.39 1.28Q-31.17 0.60-31.17-0.08L-31.17-0.08Q-31.17-0.82-31.44-1.58Q-31.71-2.33-32.21-2.95Q-32.71-3.56-33.41-3.95Q-34.10-4.33-34.96-4.33L-34.96-4.33Q-35.80-4.33-36.46-3.96Q-37.12-3.59-37.59-3.01Q-38.06-2.43-38.30-1.71Q-38.54-1.00-38.54-0.31L-38.54-0.31Q-38.54 0.43-38.26 1.18Q-37.98 1.93-37.48 2.54Q-36.98 3.15-36.29 3.53Q-35.61 3.90-34.80 3.90Z"/><path fill="#ffffff" opacity="1" d="M-24.19 4.11L-24.19 4.11L-24.12 4.11L-24.12 4.24L-25.62 4.24L-25.62 4.11L-25.56 4.11Q-25.46 4.11-25.37 4.02Q-25.29 3.94-25.23 3.84Q-25.18 3.73-25.14 3.60Q-25.11 3.47-25.11 3.36L-25.11 3.36L-25.11-3.83Q-25.11-3.93-25.13-4.05Q-25.15-4.17-25.20-4.28Q-25.26-4.39-25.35-4.46Q-25.45-4.53-25.58-4.53L-25.58-4.53L-25.65-4.53L-25.65-4.67L-24.29-4.67L-19.39 3.05L-19.39-3.83Q-19.39-3.93-19.42-4.05Q-19.45-4.17-19.51-4.28Q-19.58-4.39-19.66-4.46Q-19.74-4.53-19.85-4.53L-19.85-4.53L-19.91-4.53L-19.91-4.67L-18.40-4.67L-18.40-4.53L-18.47-4.53Q-18.58-4.53-18.66-4.46Q-18.74-4.39-18.80-4.28Q-18.86-4.17-18.89-4.05Q-18.91-3.93-18.91-3.83L-18.91-3.83L-18.91 4.24L-19.75 4.24L-24.64-3.51L-24.64 3.36Q-24.64 3.47-24.61 3.60Q-24.58 3.73-24.52 3.84Q-24.46 3.94-24.38 4.02Q-24.30 4.11-24.19 4.11Z"/><path fill="#ffffff" opacity="1" d="M-10.26 4.11L-10.26 4.11L-10.19 4.11L-10.19 4.24L-12.11 4.24L-12.11 4.11L-12.04 4.11Q-11.93 4.11-11.85 4.02Q-11.77 3.94-11.71 3.84Q-11.65 3.73-11.62 3.60Q-11.60 3.47-11.60 3.36L-11.60 3.36L-11.60-4.17L-13.16-4.17Q-13.38-4.17-13.54-4.08Q-13.70-3.98-13.81-3.84Q-13.92-3.70-13.97-3.53Q-14.03-3.36-14.03-3.20L-14.03-3.20L-14.16-3.20L-14.16-4.67L-8.10-4.67L-8.10-3.20L-8.23-3.20Q-8.23-3.36-8.29-3.53Q-8.34-3.70-8.45-3.84Q-8.56-3.98-8.72-4.08Q-8.88-4.17-9.10-4.17L-9.10-4.17L-10.69-4.17L-10.69 3.36Q-10.69 3.47-10.66 3.60Q-10.64 3.73-10.58 3.84Q-10.52 3.94-10.44 4.02Q-10.37 4.11-10.26 4.11Z"/><path fill="#ffffff" opacity="1" d="M-0.03-4.80L-0.03-4.80Q1.03-4.80 1.86-4.43Q2.70-4.06 3.29-3.43Q3.87-2.81 4.19-1.98Q4.51-1.15 4.51-0.24L4.51-0.24Q4.51 0.77 4.14 1.62Q3.77 2.47 3.12 3.08Q2.47 3.69 1.61 4.03Q0.76 4.38-0.22 4.38L-0.22 4.38Q-1.26 4.38-2.09 4.00Q-2.92 3.62-3.49 3.00Q-4.06 2.38-4.37 1.57Q-4.68 0.76-4.68-0.12L-4.68-0.12Q-4.68-0.98-4.37-1.83Q-4.06-2.67-3.46-3.33Q-2.86-3.99-2.00-4.40Q-1.13-4.80-0.03-4.80ZM-0.04 3.90L-0.04 3.90Q0.86 3.86 1.55 3.49Q2.23 3.12 2.69 2.55Q3.15 1.97 3.37 1.28Q3.59 0.60 3.59-0.08L3.59-0.08Q3.59-0.82 3.32-1.58Q3.05-2.33 2.55-2.95Q2.05-3.56 1.36-3.95Q0.66-4.33-0.20-4.33L-0.20-4.33Q-1.04-4.33-1.70-3.96Q-2.36-3.59-2.83-3.01Q-3.29-2.43-3.54-1.71Q-3.78-1.00-3.78-0.31L-3.78-0.31Q-3.78 0.43-3.50 1.18Q-3.21 1.93-2.71 2.54Q-2.21 3.15-1.53 3.53Q-0.85 3.90-0.04 3.90Z"/><path fill="#ffffff" opacity="1" d="M9.15 4.24L9.15 4.11L9.22 4.11Q9.33 4.11 9.41 4.03Q9.49 3.96 9.55 3.85Q9.61 3.74 9.65 3.62Q9.68 3.50 9.68 3.39L9.68 3.39L9.68-3.83Q9.68-3.93 9.65-4.05Q9.61-4.17 9.55-4.28Q9.49-4.39 9.41-4.46Q9.33-4.53 9.22-4.53L9.22-4.53L9.15-4.53L9.15-4.67L11.10-4.67L11.10-4.53L11.03-4.53Q10.92-4.53 10.84-4.46Q10.76-4.39 10.71-4.28Q10.65-4.17 10.62-4.05Q10.58-3.93 10.58-3.83L10.58-3.83L10.58 3.74L13.54 3.74Q13.80 3.74 13.99 3.62Q14.17 3.50 14.30 3.32Q14.43 3.13 14.49 2.92Q14.55 2.72 14.55 2.54L14.55 2.54L14.69 2.54L14.69 4.24L9.15 4.24Z"/><path fill="#ffffff" opacity="1" d="M22.88-4.80L22.88-4.80Q23.94-4.80 24.77-4.43Q25.61-4.06 26.20-3.43Q26.78-2.81 27.10-1.98Q27.42-1.15 27.42-0.24L27.42-0.24Q27.42 0.77 27.05 1.62Q26.68 2.47 26.03 3.08Q25.38 3.69 24.52 4.03Q23.67 4.38 22.69 4.38L22.69 4.38Q21.65 4.38 20.82 4.00Q19.99 3.62 19.42 3.00Q18.85 2.38 18.54 1.57Q18.22 0.76 18.22-0.12L18.22-0.12Q18.22-0.98 18.54-1.83Q18.85-2.67 19.45-3.33Q20.05-3.99 20.91-4.40Q21.78-4.80 22.88-4.80ZM22.87 3.90L22.87 3.90Q23.77 3.86 24.46 3.49Q25.14 3.12 25.60 2.55Q26.05 1.97 26.28 1.28Q26.50 0.60 26.50-0.08L26.50-0.08Q26.50-0.82 26.23-1.58Q25.96-2.33 25.46-2.95Q24.96-3.56 24.27-3.95Q23.57-4.33 22.71-4.33L22.71-4.33Q21.87-4.33 21.21-3.96Q20.55-3.59 20.08-3.01Q19.62-2.43 19.37-1.71Q19.13-1.00 19.13-0.31L19.13-0.31Q19.13 0.43 19.41 1.18Q19.70 1.93 20.20 2.54Q20.70 3.15 21.38 3.53Q22.06 3.90 22.87 3.90Z"/><path fill="#ffffff" opacity="1" d="M37.53-0.32L37.53-0.46L39.46-0.46L39.46-0.32L39.39-0.32Q39.28-0.32 39.20-0.25Q39.12-0.17 39.07-0.07Q39.01 0.04 38.98 0.16Q38.95 0.29 38.95 0.38L38.95 0.38L38.95 4.00Q38.70 4.09 38.39 4.16Q38.08 4.23 37.75 4.27Q37.41 4.32 37.06 4.35Q36.71 4.38 36.41 4.38L36.41 4.38Q35.19 4.38 34.29 3.97Q33.39 3.57 32.79 2.91Q32.20 2.26 31.91 1.43Q31.62 0.61 31.62-0.23L31.62-0.23Q31.62-1.06 31.91-1.89Q32.20-2.71 32.80-3.36Q33.40-4.01 34.31-4.41Q35.22-4.80 36.48-4.80L36.48-4.80Q36.95-4.80 37.35-4.72Q37.76-4.64 38.07-4.57L38.07-4.57Q38.25-4.53 38.37-4.50Q38.50-4.47 38.60-4.47L38.60-4.47L38.72-4.47L38.72-3.04L38.58-3.04Q38.50-3.45 38.27-3.71Q38.03-3.97 37.72-4.10Q37.41-4.24 37.06-4.28Q36.72-4.33 36.42-4.33L36.42-4.33Q35.41-4.33 34.67-3.97Q33.93-3.62 33.45-3.05Q32.98-2.48 32.75-1.77Q32.52-1.06 32.52-0.36L32.52-0.36Q32.52 0.42 32.82 1.18Q33.12 1.95 33.66 2.55Q34.20 3.15 34.96 3.52Q35.72 3.89 36.65 3.89L36.65 3.89Q36.91 3.89 37.29 3.83Q37.66 3.77 38.04 3.55L38.04 3.55L38.04 0.38Q38.04 0.29 38.02 0.16Q37.99 0.04 37.93-0.07Q37.87-0.17 37.79-0.25Q37.71-0.32 37.60-0.32L37.60-0.32L37.53-0.32Z"/><path fill="#ffffff" opacity="1" d="M44.10-4.53L44.10-4.67L46.03-4.67L46.03-4.53L45.97-4.53Q45.87-4.53 45.79-4.46Q45.71-4.39 45.66-4.28Q45.60-4.18 45.57-4.05Q45.54-3.93 45.54-3.83L45.54-3.83L45.54 3.36Q45.54 3.47 45.56 3.60Q45.59 3.73 45.65 3.84Q45.71 3.94 45.79 4.02Q45.86 4.11 45.97 4.11L45.97 4.11L46.03 4.11L46.03 4.24L44.10 4.24L44.10 4.11L44.17 4.11Q44.28 4.11 44.36 4.03Q44.44 3.96 44.50 3.84Q44.56 3.73 44.59 3.60Q44.62 3.47 44.62 3.36L44.62 3.36L44.62-3.83Q44.62-3.93 44.59-4.05Q44.56-4.17 44.50-4.28Q44.44-4.39 44.36-4.46Q44.28-4.53 44.17-4.53L44.17-4.53L44.10-4.53ZM43.98-4.97L43.94-5.05L45.86-6.49L46.21-5.88L43.98-4.97Z"/><path fill="#ffffff" opacity="1" d="M55.94 4.24L55.94 4.11L56.01 4.11Q56.34 4.11 56.34 3.81L56.34 3.81Q56.34 3.70 56.29 3.58L56.29 3.58L55.08 0.30L52.72 0.30L51.54 3.53Q51.50 3.63 51.50 3.73L51.50 3.73Q51.50 3.90 51.60 4.00Q51.69 4.11 51.80 4.11L51.80 4.11L51.87 4.11L51.87 4.24L50.37 4.24L50.37 4.11L50.44 4.11Q50.61 4.11 50.78 3.90Q50.95 3.69 51.06 3.40L51.06 3.40L54.15-4.83L57.17 3.32Q57.27 3.59 57.44 3.85Q57.60 4.11 57.87 4.11L57.87 4.11L57.94 4.11L57.94 4.24L55.94 4.24ZM53.89-2.98L52.85-0.16L54.93-0.16L53.89-2.98Z"/><path fill="#ffffff" opacity="1" d=""/></g><g transform="matrix(0.6557451169012345 0 0 0.6557451169012345 286.36049578047243 193.54150913379812)"  >
<path style="stroke: none; stroke-width: 0; stroke-dasharray: none; stroke-linecap: butt; stroke-dashoffset: 0; stroke-linejoin: miter; stroke-miterlimit: 4; fill: rgb(255,255,255); fill-rule: nonzero; opacity: 1;"  transform=" translate(-45.50056843384944, -45.4995)" d="M 84.54 22.196 c -0.144 -7.586 -3.73 -13.27 -8.706 -16.536 c -4.959 -3.306 -11.06 -4.516 -16.881 -4.526 c -4.889 0.009 -9.598 0.864 -13.452 2.362 c -3.856 -1.501 -8.566 -2.353 -13.458 -2.362 c -5.817 0.01 -11.918 1.22 -16.876 4.526 c -4.979 3.266 -8.566 8.95 -8.71 16.536 v 0.032 c -0.009 0.466 -0.013 0.941 -0.018 1.429 c -0.065 9.324 2.698 14.362 5.049 18.438 c 2.281 4.137 4.212 7.393 4.278 16.225 c 0.011 11.984 1.953 19.621 4.833 24.542 c 2.831 4.886 6.86 7.003 10.249 7.003 h 0.061 c 0.95 0 1.838 -0.149 2.67 -0.454 c 1.269 -0.458 2.232 -1.438 2.773 -2.395 c 0.556 -0.972 0.839 -1.953 1.044 -2.969 c 0.395 -2.026 0.461 -4.275 0.525 -6.764 c 0.105 -4.949 0.169 -10.797 1.664 -15.746 c 0.628 -2.128 1.397 -4.381 2.416 -5.889 c 1.039 -1.471 1.894 -2.159 3.498 -2.342 c 1.603 0.183 2.456 0.871 3.497 2.342 c 1.016 1.508 1.787 3.761 2.414 5.889 c 1.988 6.528 1.408 14.466 1.866 20.133 c 0.19 1.925 0.414 3.643 1.369 5.346 c 0.541 0.957 1.502 1.937 2.794 2.401 c 0.806 0.292 1.698 0.447 2.649 0.447 c 3.4 0.024 7.463 -2.088 10.313 -7.003 c 2.878 -4.921 4.817 -12.558 4.831 -24.542 c 0.063 -8.832 1.996 -12.088 4.277 -16.225 c 2.349 -4.073 5.122 -9.114 5.053 -18.438 C 84.563 23.172 84.553 22.685 84.54 22.196 z M 59.711 40.542 c 0.803 3.418 2.163 6.651 3.419 9.923 c 1.069 2.79 1.756 5.653 1.753 8.618 c -1.625 -5.41 -4.549 -10.131 -7.759 -14.717 c -0.834 -1.188 -1.029 -2.548 -0.972 -3.886 c 0.095 -2.249 0.864 -4.434 0.829 -6.711 c -0.012 -0.729 0.628 -1.081 1.201 -1.458 c 0.441 -0.291 0.897 -0.62 1.203 -1.03 c 0.44 -0.593 1.349 -1.387 0.572 -1.988 c -0.879 -0.68 -1.139 0.512 -1.565 0.993 c -0.855 0.961 -1.625 1.492 -2.327 -0.12 c -0.158 -0.36 -0.481 -0.713 -0.942 -0.563 c -0.624 0.203 -0.419 0.688 -0.31 1.141 c 0.257 1.065 0.494 2.136 0.701 3.21 c 0.061 0.308 0.053 0.714 -0.384 0.771 c -0.214 0.027 -0.564 -0.139 -0.678 -0.316 c -0.901 -1.413 -2.486 -2.187 -3.538 -3.449 c -0.285 -0.343 -0.472 -0.92 -1.06 -0.49 c -0.43 0.315 -0.304 0.822 -0.133 1.259 c 0.2 0.512 0.643 0.824 1.103 1.106 c 1.645 1.011 2.582 2.641 3.875 3.959 c 0.35 0.356 0.234 4.756 -0.041 5.084 c -0.29 0.345 -0.589 0.206 -0.896 0.048 c -1.791 -0.928 -3.604 -1.818 -5.364 -2.797 c -1.16 -0.645 -1.771 -1.75 -2.353 -2.861 c -0.256 -0.491 -0.564 -1.264 -1.307 -0.876 c -0.743 0.387 -0.141 1.028 0.068 1.53 c 0.732 1.761 1.997 3.104 3.824 3.852 c 8.721 3.571 12.311 10.664 14.408 18.77 c 0.617 2.38 0.452 4.813 0.176 7.235 c -0.224 -1.458 -0.288 -2.927 -0.467 -4.387 c -0.465 -3.772 -3.083 -7.793 -5.438 -10.913 c -2.948 -3.911 -4.659 -5.834 -8.776 -7.063 c -4.208 -1.254 -7.991 -0.209 -10.99 2.469 c -2.846 2.54 -6.326 8.326 -8.131 11.606 c -0.5 0.905 -0.976 1.821 -1.534 2.868 c -0.201 -1.095 -0.201 -1.095 -0.068 -1.525 c 1.153 -3.735 3.142 -7.105 4.887 -10.599 c 1.678 -3.354 3.509 -5.535 7.659 -5.859 c 2.294 -0.179 3.436 -2.906 2.584 -5.042 c -0.083 -0.212 -0.298 -0.497 -0.492 -0.528 c -0.412 -0.066 -0.637 0.29 -0.594 0.609 c 0.527 3.951 -2.584 4.045 -5.323 4.522 c -1.659 0.288 -2.788 -0.547 -3.156 -2.373 c -0.301 -1.491 0.831 -2.004 2.012 -2.159 c 3.342 -0.437 4.646 -2.603 5.347 -5.348 c 0.112 -0.437 0.238 -0.97 -0.366 -1.155 c -0.611 -0.188 -0.927 0.299 -0.961 0.741 c -0.315 4.014 -4.016 4.2 -6.793 5.416 c -0.657 0.288 -0.834 -0.232 -0.943 -0.681 c -0.241 -0.998 0.085 -1.901 0.541 -2.794 c 0.472 -0.926 0.934 -1.865 1.29 -2.833 c 0.168 -0.455 0.27 -1.137 -0.379 -1.347 c -0.664 -0.215 -0.683 0.46 -0.843 0.844 c -0.287 0.685 -0.662 0.979 -1.346 0.39 c -1.229 -1.061 -2.958 -1.718 -3.17 -3.598 c -0.044 -0.389 -0.261 -0.797 -0.775 -0.729 c -0.619 0.08 -0.677 0.583 -0.63 1.042 c 0.115 1.153 0.646 2.167 1.664 2.774 c 2.062 1.226 3.062 2.691 2.356 5.138 c -0.464 1.609 0.274 3.187 1.351 4.52 c 2.018 2.501 1.78 4.982 0.089 7.542 c -1.213 1.837 -2.294 3.753 -3.565 5.595 c 0.347 -2.682 0.864 -5.311 0.861 -8.013 c -0.002 -3.573 -0.902 -6.896 -2.534 -10.071 c -0.804 -1.568 -1.65 -3.114 -2.117 -4.814 c -1.017 -3.706 1.581 -6.481 5.599 -5.913 c 2.111 0.297 4.042 1.125 5.907 2.088 c 1.076 0.556 2.154 1.108 3.243 1.641 c 3.767 1.836 7.458 2.114 11.246 -0.114 c 2.195 -1.291 4.638 -2.185 7.196 -2.689 c 2.557 -0.502 4.051 0.659 4.19 3.135 c 0.105 1.864 -0.323 3.59 -1.279 5.204 C 59.409 36.325 59.197 38.351 59.711 40.542 z M 57.147 59.818 c -0.672 -2.217 -1.509 -4.979 -3.162 -7.486 c -1.595 -2.496 -4.455 -4.829 -8.304 -5.021 l -0.185 -0.009 l -0.18 0.009 c -3.852 0.191 -6.711 2.524 -8.302 5.021 c -1.655 2.507 -2.491 5.27 -3.166 7.486 c -2.372 7.997 -1.634 16.6 -2.105 21.397 c -0.095 1.297 -0.342 2.267 -0.495 2.636 c -0.095 0.014 -0.21 0.024 -0.341 0.024 c -0.304 -0.007 -0.699 -0.06 -1.159 -0.22 c -0.628 -6.542 -1.195 -16.486 1.088 -22.154 c 3.374 -8.378 8 -15.178 13.727 -15.931 c 2.952 -0.389 5.695 0.898 7.363 2.117 c 2.911 2.127 6.325 7.626 7.245 10.992 c 1.713 6.273 2.074 14.585 1.024 20.866 c -0.113 0.676 -0.435 2.09 -0.721 3.326 c -0.258 -1.251 -0.36 -3.313 -0.414 -5.731 C 58.936 72.267 58.963 65.906 57.147 59.818 z M 74.294 39.154 c -2.387 4.139 -5.118 9.395 -5.054 19.166 c 0.013 11.34 -1.91 17.984 -4.003 21.502 c -1.131 1.884 -2.228 2.898 -3.161 3.444 c 0.609 -1.26 1.297 -2.677 1.52 -3.205 c 3.902 -9.321 4.938 -18.734 2.535 -28.365 c -1.762 -7.063 0.879 -11.961 3.383 -18.66 c 1.099 -2.934 3.005 -6.342 2.992 -9.488 c -0.026 -6.82 -4.032 -11.659 -11.189 -10.585 c -2.516 0.377 -6.751 1.941 -9.069 2.892 c -6.1 2.504 -8.08 3.571 -14.314 1.245 c -0.823 -0.307 -5.192 -2.423 -6.029 -2.698 c -3.75 -1.229 -8.023 -1.557 -10.942 1.196 c -3.058 2.885 -4.103 5.642 -3.163 11.198 c 0.728 4.299 3.384 8.011 5.104 12.015 c 3.164 7.36 5.44 15.934 3.402 23.649 c -0.141 0.532 -0.266 1.064 -0.385 1.598 c -0.039 0.172 -0.072 0.344 -0.108 0.517 c -0.076 0.362 -0.148 0.727 -0.214 1.09 c -0.035 0.195 -0.068 0.392 -0.101 0.587 c -0.058 0.353 -0.111 0.703 -0.16 1.054 c -0.025 0.187 -0.053 0.374 -0.076 0.559 c -0.052 0.416 -0.037 -0.212 -0.077 0.204 c -0.01 0.115 -0.024 0.23 -0.035 0.345 c -0.045 0.524 -0.079 1.047 -0.104 1.571 c -0.006 0.154 -0.01 0.31 -0.016 0.465 c -0.014 0.374 -0.025 0.751 -0.028 1.125 c -0.003 0.192 -0.002 0.385 -0.001 0.576 c 0.001 0.346 0.005 0.69 0.015 1.035 c 0.005 0.192 0.009 0.385 0.017 0.577 c 0.015 0.374 0.036 0.749 0.06 1.122 c 0.011 0.152 0.018 0.306 0.029 0.458 c 0.039 0.52 0.086 1.038 0.143 1.557 c 0.013 0.117 0.03 0.234 0.043 0.352 c 0.048 0.407 0.1 0.814 0.158 1.222 c 0.026 0.187 0.056 0.372 0.084 0.557 c 0.031 0.2 0.066 0.397 0.099 0.596 c -2.048 -3.568 -3.904 -10.167 -3.891 -21.305 c 0.065 -9.766 -2.667 -15.027 -5.049 -19.163 c -2.314 -4.192 -4.212 -7.185 -4.28 -15.5 c 0 -0.399 0.008 -0.835 0.017 -1.303 c 0.21 -5.889 2.524 -9.282 6.054 -11.715 c 2.692 -1.821 6.227 -2.902 9.947 -3.317 l 6.285 -0.083 c 3.648 0.282 7.078 1.113 9.536 2.231 l 1.234 0.556 l 1.228 -0.553 c 3.063 -1.39 7.613 -2.357 12.226 -2.348 c 4.978 -0.009 9.998 1.113 13.545 3.512 c 3.531 2.436 5.841 5.827 6.053 11.722 c 0.013 0.455 0.022 0.892 0.022 1.299 C 78.502 31.973 76.611 34.962 74.294 39.154 z" stroke-linecap="round" />
</g>
</svg>